<?xml version="1.0" standalone="no"?>
<!DOCTYPE svg PUBLIC "-//W3C//DTD SVG 20010904//EN"
 "http://www.w3.org/TR/2001/REC-SVG-20010904/DTD/svg10.dtd">
<svg version="1.0" xmlns="http://www.w3.org/2000/svg"
 width="512.000000pt" height="512.000000pt" viewBox="0 0 512.000000 512.000000"
 preserveAspectRatio="xMidYMid meet">
<metadata>
Created by potrace 1.14, written by Peter Selinger 2001-2017
</metadata>
<g transform="translate(0.000000,512.000000) scale(0.100000,-0.100000)"
fill="#000000" stroke="none">
<path d="M2609 4926 c-2 -2 -42 -6 -89 -9 -110 -8 -179 -21 -270 -55 -47 -17
-181 -82 -190 -91 -3 -3 -27 -22 -55 -41 -107 -74 -220 -203 -288 -330 -39
-71 -92 -222 -102 -285 -3 -22 -8 -56 -11 -75 -7 -48 -6 -231 2 -239 3 -3 113
-6 245 -6 l239 0 1 95 c2 141 12 190 57 275 33 61 35 63 94 124 88 88 227 144
356 140 77 -2 192 -36 255 -76 101 -64 190 -190 217 -308 7 -28 12 -95 11
-150 l0 -100 244 0 c211 0 245 2 246 15 24 343 -87 638 -319 850 -117 108
-287 203 -401 225 -9 1 -34 8 -56 14 -22 5 -69 13 -105 17 -36 3 -68 8 -71 10
-3 2 -8 2 -10 0z"/>
<path d="M1036 3628 c-6 -37 -7 -39 -42 -293 -32 -233 -34 -244 -39 -269 -2
-12 -7 -43 -10 -71 -3 -27 -19 -144 -36 -260 -16 -115 -32 -228 -35 -250 -2
-22 -7 -53 -11 -70 -3 -16 -7 -41 -8 -55 -2 -14 -13 -95 -25 -180 -12 -85 -24
-171 -26 -190 -3 -31 -25 -185 -39 -277 -3 -18 -7 -48 -10 -65 -5 -34 -60
-430 -70 -504 -3 -22 -8 -52 -10 -65 -5 -34 -13 -86 -21 -148 l-7 -54 39 44
c21 24 44 49 49 55 6 6 37 41 70 79 33 38 67 76 75 85 8 9 44 50 80 91 35 41
67 76 70 79 3 3 37 41 75 85 90 103 135 154 158 178 10 10 20 33 22 50 3 35
23 182 29 213 3 17 7 43 22 154 3 19 9 61 14 94 5 32 9 61 8 65 -1 3 2 22 5
41 4 19 8 51 11 70 5 41 45 324 51 360 8 52 56 387 61 430 2 25 7 53 10 63 5
16 50 17 766 17 l760 0 -58 -67 c-33 -38 -73 -84 -91 -103 -17 -19 -40 -44
-50 -56 -10 -12 -45 -52 -78 -89 -33 -38 -94 -107 -135 -154 -41 -47 -82 -93
-90 -101 -8 -8 -62 -69 -120 -135 -58 -66 -109 -125 -115 -131 -5 -6 -33 -37
-62 -70 -28 -32 -62 -71 -75 -85 -38 -42 -76 -85 -237 -268 -142 -162 -185
-210 -236 -266 -11 -13 -41 -47 -66 -76 -26 -30 -57 -66 -70 -80 -13 -14 -49
-54 -79 -89 -81 -93 -122 -140 -149 -169 -13 -14 -49 -55 -80 -90 -31 -35 -61
-69 -66 -75 -6 -6 -58 -65 -115 -131 -58 -65 -112 -126 -120 -135 -8 -9 -76
-85 -150 -170 -74 -84 -152 -172 -172 -194 -21 -23 -38 -50 -38 -61 -1 -11 -3
-27 -5 -35 -1 -8 -5 -30 -8 -47 l-5 -33 2003 0 2002 0 -3 27 c-2 16 -13 91
-24 168 -12 77 -22 154 -24 170 -2 17 -6 48 -9 70 -4 22 -9 58 -12 80 -3 22
-7 51 -10 65 -4 27 -23 167 -30 215 -6 49 -17 129 -21 147 -1 9 -5 38 -9 65
-4 26 -9 59 -11 73 -2 14 -6 43 -9 65 -3 22 -14 101 -25 175 -21 148 -57 402
-65 465 -2 22 -7 51 -9 65 -3 14 -7 46 -10 72 -3 26 -8 58 -10 70 -3 13 -8 46
-11 73 -6 47 -14 109 -35 250 -20 132 -48 331 -55 390 -3 22 -8 58 -12 80 -9
56 -11 77 -12 103 -2 47 -38 23 -142 -95 -57 -65 -120 -136 -139 -157 -19 -21
-40 -44 -45 -50 -91 -101 -146 -166 -144 -170 1 -3 6 -29 10 -58 4 -29 12 -84
18 -123 6 -38 13 -88 16 -110 3 -22 7 -53 10 -70 3 -16 7 -50 10 -75 3 -25 7
-56 10 -70 3 -14 7 -45 10 -70 3 -25 7 -56 10 -70 3 -14 7 -45 10 -70 3 -25 7
-56 10 -70 2 -14 7 -47 10 -75 3 -27 10 -77 15 -110 5 -33 11 -78 14 -100 4
-22 8 -51 11 -65 3 -14 7 -47 10 -75 2 -27 8 -63 11 -80 4 -16 8 -41 9 -55 1
-14 5 -47 9 -75 4 -27 12 -81 17 -120 6 -38 12 -81 14 -95 2 -14 7 -47 10 -75
3 -27 11 -76 16 -109 6 -32 7 -61 4 -64 -8 -8 -2315 -9 -2315 -1 0 4 44 56 97
115 53 60 106 120 118 133 11 13 25 29 30 35 15 16 317 359 384 435 31 35 65
74 76 85 11 12 101 113 199 226 99 113 187 212 195 221 9 9 41 44 71 79 30 35
63 73 73 84 10 12 42 48 70 80 29 33 70 80 93 105 54 61 125 141 199 226 33
37 69 78 80 89 11 12 59 66 107 121 47 55 95 109 105 120 10 11 85 97 168 190
82 94 154 175 160 181 5 6 35 40 65 74 30 35 59 68 65 74 5 6 31 35 57 63 36
39 46 57 43 75 -3 14 -7 40 -9 59 l-3 34 -1516 3 -1516 2 -5 -32z"/>
</g>
</svg>
